# xmcd CD database file
#
# Track frame offsets:
#	150
#	15297
#	32393
#	50761
#	71658
#	85287
#	96712
#	107874
#	117739
#	134542
#	154368
#	160546
#	169618
#
# Disc length: 2499 seconds
#
# Revision: 0
# Processed by: cddbd v1.5.1PL0 Copyright (c) Steve Scherf et al.
# Submitted via: CDex 1.51
#
DISCID=af09c10d
DTITLE=Tom Waits - Blood Money
DYEAR=2002
DGENRE=Blues
TTITLE0=Misery Is The River Of The World
TTITLE1=Everything Goes to Hell
TTITLE2=Coney Island Baby
TTITLE3=All the World Is Green
TTITLE4=God's Away On Business
TTITLE5=Another Man's Vine
TTITLE6=Knife Chase [Instrumental]
TTITLE7=Lullaby
TTITLE8=Starving in the Belly of a Whale
TTITLE9=The Part You Throw Away
TTITLE10=Woe
TTITLE11=Calliope ( instrumental )
TTITLE12=Good Man Is Hard to Find
EXTD=YEAR: 2002
EXTT0=
EXTT1=
EXTT2=
EXTT3=
EXTT4=
EXTT5=
EXTT6=
EXTT7=
EXTT8=
EXTT9=
EXTT10=
EXTT11=
EXTT12=
PLAYORDER=
